<svg id="Capa_1" enable-background="new 0 0 512 512" height="512" viewBox="0 0 512 512" width="512" xmlns="http://www.w3.org/2000/svg"><g><path d="m511.402 255.208c-6.367-79.828-64.539-146.518-134.402-181.77l-33.987 16.993c-19.577-28.44-47.505-42.739-49.305-43.639l-13.458 26.812c.323.164 20.397 10.584 35.445 30.486l-46.275 23.137c-12.142-53.029-63.256-79.207-65.712-80.436l-13.458 26.813c.474.241 43.495 22.58 50.719 64.566-6.73 2.575-12.691 6.716-17.427 11.984l-223.542 110.746v204.309h512v-210h-.598zm-254.402-90c8.271 0 15 6.729 15 15s-6.729 15-15 15-15-6.729-15-15 6.729-15 15-15zm-44.145 23.72c4.073 20.653 22.315 36.28 44.145 36.28 24.813 0 45-20.187 45-45 0-11.511-4.349-22.021-11.484-29.988l38.789-19.394c.674 2.376 1.231 4.826 1.665 7.344-16.92 6.474-28.97 22.871-28.97 42.038 0 24.813 20.187 45 45 45s45-20.187 45-45c0-19.84-12.912-36.711-30.77-42.681-.884-7.22-2.499-13.995-4.657-20.335l20.053-10.027c53.654 31.612 98.822 84.636 104.674 148.043h-74.3c-24.813 0-45 20.187-45 45 0 8.271-6.729 15-15 15s-15-6.729-15-15c0-24.813-20.187-45-45-45h-207.933zm149.145-8.72c0 8.271-6.729 15-15 15s-15-6.729-15-15 6.729-15 15-15 15 6.729 15 15zm120 135h-92.58c1.665-4.695 2.58-9.742 2.58-15 0-8.271 6.729-15 15-15h75zm-300 105c0 8.271-6.729 15-15 15s-15-6.729-15-15.004c0-24.811-20.187-44.996-45-44.996h-77v-30h452v30h-255c-24.813 0-45 20.186-45 45zm105-135c8.271 0 15 6.729 15 15 0 5.258.915 10.305 2.58 15h-274.58v-30zm-257 120h77c8.271 0 15 6.727 15 15 0 5.258.915 10.305 2.58 15h-94.58zm179.419 30c1.666-4.696 2.581-9.743 2.581-15.003 0-8.269 6.729-14.997 15-14.997h255v30z"/></g></svg>