<?xml version="1.0" encoding="iso-8859-1"?>
<!-- Generator: Adobe Illustrator 19.0.0, SVG Export Plug-In . SVG Version: 6.00 Build 0)  -->
<svg version="1.1" id="Capa_1" xmlns="http://www.w3.org/2000/svg" xmlns:xlink="http://www.w3.org/1999/xlink" x="0px" y="0px"
	 viewBox="0 0 496 496" style="enable-background:new 0 0 496 496;" xml:space="preserve">
<g>
	<path style="fill:#F0BC5E;" d="M220,392c-19.848,0-36-16.152-36-36s16.152-36,36-36s36,16.152,36,36S239.848,392,220,392z"/>
	<path style="fill:#F0BC5E;" d="M248,248c-13.232,0-24-10.768-24-24s10.768-24,24-24s24,10.768,24,24S261.232,248,248,248z"/>
	<path style="fill:#F0BC5E;" d="M376,376c-13.232,0-24-10.768-24-24s10.768-24,24-24s24,10.768,24,24S389.232,376,376,376z"/>
	<path style="fill:#F0BC5E;" d="M324,464c-13.232,0-24-10.768-24-24s10.768-24,24-24s24,10.768,24,24S337.232,464,324,464z"/>
	<path style="fill:#F0BC5E;" d="M76,256c-19.848,0-36-16.152-36-36s16.152-36,36-36s36,16.152,36,36S95.848,256,76,256z"/>
	<path style="fill:#F0BC5E;" d="M112,104c-13.232,0-24-10.768-24-24s10.768-24,24-24s24,10.768,24,24S125.232,104,112,104z"/>
	<path style="fill:#F0BC5E;" d="M224,144c-13.232,0-24,10.768-24,24c0,11.968,8.976,22.168,20.888,23.72l25.968-16.656
		c0.768-2.48,1.144-4.792,1.144-7.064C248,154.768,237.232,144,224,144z"/>
	<path style="fill:#F0BC5E;" d="M240,96c-13.232,0-24-10.768-24-24s10.768-24,24-24s24,10.768,24,24S253.232,96,240,96z"/>
</g>
<path d="M492.256,283.856l-1.992-9.528l-8.96,3.8C478.36,279.368,475.232,280,472,280c-9.208,0-17.456-5.224-21.52-13.632
	l-3.184-6.584l-6.84,2.584c-16.808,6.36-32.44-6.472-32.48-21.816l0.336-7.816l-6.224-1.592C391.44,228.432,384,218.912,384,208
	c0-2.744,0.544-5.584,1.632-8.44l2.592-6.848l-6.592-3.184C373.224,185.464,368,177.208,368,168c0-2.488,0.48-5.056,1.464-7.864
	l2.88-8.224l-8.44-2.168c-4.912-1.264-9.816-2.248-14.712-3.096C335.032,62.664,261.72,0,176,0C78.952,0,0,78.952,0,176
	c0,85.664,62.568,158.92,146.464,173.16C160.4,432.376,232.888,496,320,496c97.048,0,176-78.952,176-176
	C496,307.936,494.736,295.776,492.256,283.856z M16,176C16,87.776,87.776,16,176,16c76.288,0,141.776,54.6,156.568,128.536
	C328.352,144.208,324.152,144,320,144c-97.048,0-176,78.952-176,176c0,4.232,0.2,8.408,0.496,12.568
	C70.576,317.752,16,252.28,16,176z M320,480c-88.224,0-160-71.776-160-160s71.776-160,160-160c10.544,0,21.368,1.16,32.288,3.448
	c-0.192,1.528-0.288,3.04-0.288,4.552c0,13.104,6.288,25.016,16.768,32.448c-0.512,2.52-0.768,5.048-0.768,7.552
	c0,16.152,9.72,30.472,24.272,36.672C394.592,264.528,411.52,280,432,280c2.504,0,5.024-0.256,7.552-0.768
	C446.984,289.712,458.896,296,472,296c2.064,0,4.104-0.16,6.112-0.464C479.368,303.656,480,311.848,480,320
	C480,408.224,408.224,480,320,480z"/>
<rect x="296" y="184" width="16" height="16"/>
<rect x="312" y="240" width="16" height="16"/>
<rect x="184" y="272" width="16" height="16"/>
<rect x="256" y="288" width="16" height="16"/>
<rect x="296" y="352" width="16" height="16"/>
<rect x="248" y="432" width="16" height="16"/>
<rect x="384" y="416" width="16" height="16"/>
<rect x="424" y="328" width="16" height="16"/>
<rect x="272" y="112" width="16" height="16"/>
<rect x="184" y="96" width="16" height="16"/>
<rect x="168" y="32" width="16" height="16"/>
<rect x="40" y="128" width="16" height="16"/>
<rect x="128" y="144" width="16" height="16"/>
<rect x="144" y="208" width="16" height="16"/>
<rect x="104" y="280" width="16" height="16"/>
<rect x="360" y="280" width="16" height="16"/>
<g>
</g>
<g>
</g>
<g>
</g>
<g>
</g>
<g>
</g>
<g>
</g>
<g>
</g>
<g>
</g>
<g>
</g>
<g>
</g>
<g>
</g>
<g>
</g>
<g>
</g>
<g>
</g>
<g>
</g>
</svg>
