<svg width="576" height="512" xmlns="http://www.w3.org/2000/svg" class="svg-inline--fa fa-shopping-basket fa-w-18">
 <g>
  <title>background</title>
  <rect x="-1" y="-1" width="578" height="514" id="canvas_background" fill="none"/>
 </g>

 <g>
  <title>Layer 1</title>
  <path stroke="null" fill="#595959" d="m540.999996,229.142966l0,17.142849c0,14.201779 -10.092092,25.714273 -22.541667,25.714273l-7.513889,0l-24.526272,195.844192c-3.17274,25.336059 -22.194149,44.155693 -44.629682,44.155693l-342.576977,0c-22.435533,0 -41.456942,-18.819634 -44.630621,-44.155693l-24.525333,-195.844192l-7.513889,0c-12.449575,0 -22.541667,-11.512495 -22.541667,-25.714273l0,-17.142849c0,-14.201779 10.092092,-25.714273 22.541667,-25.714273l63.249099,0l100.291631,-157.308139c9.763359,-15.31285 28.559352,-18.699634 41.984793,-7.562139c13.424502,11.137495 16.392488,32.579984 6.629128,47.893906l-74.578164,116.976373l220.763689,0l-74.578164,-116.977444c-9.763359,-15.31285 -6.794434,-36.756411 6.630068,-47.893906c13.422623,-11.137495 32.221434,-7.751782 41.984793,7.562139l100.290692,157.309211l63.249099,0c12.449575,0 22.541667,11.512495 22.541667,25.714273zm-247.958332,188.571339l0,-119.999943c0,-14.201779 -10.092092,-25.714273 -22.541667,-25.714273s-22.541667,11.512495 -22.541667,25.714273l0,119.999943c0,14.201779 10.092092,25.714273 22.541667,25.714273s22.541667,-11.512495 22.541667,-25.714273zm105.194444,0l0,-119.999943c0,-14.201779 -10.092092,-25.714273 -22.541667,-25.714273s-22.541667,11.512495 -22.541667,25.714273l0,119.999943c0,14.201779 10.092092,25.714273 22.541667,25.714273s22.541667,-11.512495 22.541667,-25.714273zm-210.388887,0l0,-119.999943c0,-14.201779 -10.092092,-25.714273 -22.541667,-25.714273s-22.541667,11.512495 -22.541667,25.714273l0,119.999943c0,14.201779 10.092092,25.714273 22.541667,25.714273s22.541667,-11.512495 22.541667,-25.714273z" id="svg_1"/>
 </g>
</svg>