<svg width="576" height="512" xmlns="http://www.w3.org/2000/svg" class="svg-inline--fa fa-shopping-basket fa-w-18">
 <g>
  <title>background</title>
  <rect fill="none" id="canvas_background" height="514" width="578" y="-1" x="-1"/>
 </g>

 <g>
  <title>Layer 1</title>
  <path id="svg_1" d="m541,229.14297l0,17.14285c0,14.20177 -10.0921,25.71427 -22.54167,25.71427l-7.51389,0l-24.52627,195.84419c-3.17274,25.33606 -22.19415,44.15569 -44.62968,44.15569l-342.57698,0c-22.43553,0 -41.45694,-18.81963 -44.63062,-44.15569l-24.52533,-195.84419l-7.51389,0c-12.44958,0 -22.54167,-11.5125 -22.54167,-25.71427l0,-17.14285c0,-14.20178 10.09209,-25.71428 22.54167,-25.71428l63.2491,0l100.29163,-157.30814c9.76336,-15.31285 28.55935,-18.69963 41.98479,-7.56214c13.4245,11.1375 16.39249,32.57999 6.62913,47.89391l-74.57817,116.97637l220.76369,0l-74.57816,-116.97744c-9.76336,-15.31285 -6.79444,-36.75641 6.63007,-47.89391c13.42262,-11.13749 32.22143,-7.75178 41.98479,7.56214l100.29069,157.30921l63.2491,0c12.44958,0 22.54167,11.5125 22.54167,25.71428zm-247.95834,188.57133l0,-119.99994c0,-14.20178 -10.09209,-25.71427 -22.54166,-25.71427s-22.54167,11.51249 -22.54167,25.71427l0,119.99994c0,14.20178 10.09209,25.71428 22.54167,25.71428s22.54166,-11.5125 22.54166,-25.71428zm105.19445,0l0,-119.99994c0,-14.20178 -10.09209,-25.71427 -22.54167,-25.71427s-22.54167,11.51249 -22.54167,25.71427l0,119.99994c0,14.20178 10.0921,25.71428 22.54167,25.71428s22.54167,-11.5125 22.54167,-25.71428zm-210.38889,0l0,-119.99994c0,-14.20178 -10.09209,-25.71427 -22.54167,-25.71427s-22.54166,11.51249 -22.54166,25.71427l0,119.99994c0,14.20178 10.09209,25.71428 22.54166,25.71428s22.54167,-11.5125 22.54167,-25.71428z" fill="#ffffff" stroke="null"/>
 </g>
</svg>