<svg width="448" height="512" xmlns="http://www.w3.org/2000/svg" class="svg-inline--fa fa-facebook-square fa-w-14">

 <g>
  <title>background</title>
  <rect fill="none" id="canvas_background" height="602" width="802" y="-1" x="-1"/>
 </g>
 <g>
  <title>Layer 1</title>
  <path stroke="null" id="svg_1" d="m400,39l-352,0a48,47.25 0 0 0 -48,47.25l0,346.5a48,47.25 0 0 0 48,47.25l137.25,0l0,-149.930156l-63,0l0,-70.569844l63,0l0,-53.78625c0,-61.178906 37,-94.9725 93.67,-94.9725c27.14,0 55.52,4.764375 55.52,4.764375l0,60.046875l-31.27,0c-30.81,0 -40.42,18.82125 -40.42,38.124844l0,45.822656l68.78,0l-11,70.569844l-57.78,0l0,149.930156l137.25,0a48,47.25 0 0 0 48,-47.25l0,-346.5a48,47.25 0 0 0 -48,-47.25z" fill="#1877f2"/>
 </g>
</svg>