<svg width="477.867" height="477.867" xmlns="http://www.w3.org/2000/svg">

 <g>
  <title>background</title>
  <rect fill="none" id="canvas_background" height="602" width="802" y="-1" x="-1"/>
 </g>
 <g>
  <title>Layer 1</title>
  <g id="svg_1">
   <g id="svg_2">
    <path fill="#ffffff" stroke="#ffffff" id="svg_3" d="m392.533501,0l-307.2,0c-47.105,0.056 -85.277,38.228 -85.333,85.333l0,307.2c0.056,47.105 38.228,85.277 85.333,85.333l307.2,0c47.105,-0.056 85.277,-38.228 85.333,-85.333l0,-307.2c-0.056,-47.105 -38.228,-85.277 -85.333,-85.333zm-68.266,256l-68.267,0l0,68.267c0,9.426 -7.641,17.067 -17.067,17.067s-17.067,-7.641 -17.067,-17.067l0,-68.267l-68.266,0c-9.426,0 -17.067,-7.641 -17.067,-17.067s7.641,-17.067 17.067,-17.067l68.267,0l0,-68.266c0,-9.426 7.641,-17.067 17.067,-17.067s17.066,7.641 17.066,17.067l0,68.267l68.267,0c9.426,0 17.067,7.641 17.067,17.067s-7.642,17.066 -17.067,17.066z"/>
   </g>
  </g>
  <g id="svg_4"/>
  <g id="svg_5"/>
  <g id="svg_6"/>
  <g id="svg_7"/>
  <g id="svg_8"/>
  <g id="svg_9"/>
  <g id="svg_10"/>
  <g id="svg_11"/>
  <g id="svg_12"/>
  <g id="svg_13"/>
  <g id="svg_14"/>
  <g id="svg_15"/>
  <g id="svg_16"/>
  <g id="svg_17"/>
  <g id="svg_18"/>
 </g>
</svg>