<svg width="512" height="512" xmlns="http://www.w3.org/2000/svg">

 <g>
  <title>background</title>
  <rect fill="none" id="canvas_background" height="602" width="802" y="-1" x="-1"/>
 </g>
 <g>
  <title>Layer 1</title>
  <g id="svg_1">
   <path fill="#bf0000" id="svg_2" d="m424,64l-88,0l0,-16c0,-26.51 -21.49,-48 -48,-48l-64,0c-26.51,0 -48,21.49 -48,48l0,16l-88,0c-22.091,0 -40,17.909 -40,40l0,32c0,8.837 7.163,16 16,16l384,0c8.837,0 16,-7.163 16,-16l0,-32c0,-22.091 -17.909,-40 -40,-40zm-216,-16c0,-8.82 7.18,-16 16,-16l64,0c8.82,0 16,7.18 16,16l0,16l-96,0l0,-16z"/>
   <path fill="#bf0000" id="svg_3" d="m78.364,184c-2.855,0 -5.13,2.386 -4.994,5.238l13.2,277.042c1.22,25.64 22.28,45.72 47.94,45.72l242.98,0c25.66,0 46.72,-20.08 47.94,-45.72l13.2,-277.042c0.136,-2.852 -2.139,-5.238 -4.994,-5.238l-355.272,0zm241.636,40c0,-8.84 7.16,-16 16,-16s16,7.16 16,16l0,208c0,8.84 -7.16,16 -16,16s-16,-7.16 -16,-16l0,-208zm-80,0c0,-8.84 7.16,-16 16,-16s16,7.16 16,16l0,208c0,8.84 -7.16,16 -16,16s-16,-7.16 -16,-16l0,-208zm-80,0c0,-8.84 7.16,-16 16,-16s16,7.16 16,16l0,208c0,8.84 -7.16,16 -16,16s-16,-7.16 -16,-16l0,-208z"/>
  </g>
 </g>
</svg>